<svg xmlns="http://www.w3.org/2000/svg" viewBox="0 0 495.83 457.72"><defs><style>.cls-1{fill:#ac825a;}.cls-2{fill:#e8c491;}.cls-3{fill:#ecd8c0;}.cls-4{fill:#cbbba2;}.cls-5{fill:#c29a67;}.cls-6{fill:#ce472a;}.cls-7{fill:#fff;}</style></defs><title>installer</title><polygon class="cls-1" points="247.92 113.97 247.92 457.73 0 382.03 0 51.48 247.92 113.97"/><polygon class="cls-2" points="0 51.48 247.92 113.97 495.83 51.48 246.36 0 0 51.48"/><polygon class="cls-3" points="106.36 78.29 145.93 88.27 377 26.9 334.63 18.22 106.36 78.29"/><path class="cls-4" d="M106.36,78.29l-.26,30.62s2.1,4.25,5,1.47,5.17,1.5,5.17,1.5,1.58,4.15,5.34,1.55,5.69,1.65,5.69,1.65.91,3.48,4.4,1.28,5.92,1.73,5.92,1.73,2.72,5.69,8.79,2.55l-.52-32.37Z"/><polygon class="cls-5" points="247.92 113.97 247.92 457.73 495.83 395.73 495.83 51.98 247.92 113.97"/><path class="cls-6" d="M315.74,204,428,176a4.8,4.8,0,0,1,6.24,4.92V297.63a8.68,8.68,0,0,1-6.24,8L315.74,333.75a4.8,4.8,0,0,1-6.24-4.93V212.07A8.7,8.7,0,0,1,315.74,204Z"/><path class="cls-7" d="M397.57,264a15.32,15.32,0,0,0-6.57,4.24l-13,15-3.53,4.07c-.39.45,1,.39,3-.13l33.06-8.26a5.23,5.23,0,0,0,3.74-4.83V263.7a2.88,2.88,0,0,0-3.74-2.95Z"/><path class="cls-7" d="M369.31,288.59l-3.53-2.31-13-8.49a9.6,9.6,0,0,0-6.57-1l-13,3.25a5.22,5.22,0,0,0-3.74,4.83v10.37a2.88,2.88,0,0,0,3.74,3L366.26,290C368.32,289.47,369.69,288.84,369.31,288.59Z"/><polygon class="cls-7" points="340.69 266.42 340.69 226.33 403.06 210.73 403.06 250.82 371.88 286.83 340.69 266.42"/><path class="cls-6" d="M400.57,214v36.32l-28.69,33.12-28.7-18.77V228.3L400.57,214m5-6.44-67.37,16.85v43.87l1.73,1.1,28.69,18.77,3.27,2.16,3.26-3.8,28.7-33.12,1.72-2Z"/></svg>