<svg id="Layer_1" data-name="Layer 1" xmlns="http://www.w3.org/2000/svg" viewBox="0 0 100 100"><defs><style>.cls-1{fill:#cf462b;}.cls-2{fill:#fff;}</style></defs><rect class="cls-1" width="100" height="100" rx="5"/><path class="cls-2" d="M70.6,62a9.38,9.38,0,0,0-5.27,2L54.89,73.05l-2.83,2.46c-.31.27.79.49,2.44.49H81a3,3,0,0,0,3-3V65a3,3,0,0,0-3-3Z"/><path class="cls-2" d="M47.94,75.51l-2.83-2.46L34.67,64a9.38,9.38,0,0,0-5.27-2H19a3,3,0,0,0-3,3v8a3,3,0,0,0,3,3H45.5C47.15,76,48.25,75.78,47.94,75.51Z"/><polygon class="cls-2" points="25 52.91 25 22 75 22 75 52.91 50 74.65 25 52.91"/><path class="cls-1" d="M73,24V52L50,72,27,52V24H73m4-4H23V53.82L24.38,55l23,20L50,77.3,52.62,75l23-20L77,53.82V20Z"/></svg>